<svg width="29" height="29" viewBox="0 0 29 29" fill="none" xmlns="http://www.w3.org/2000/svg">
<circle cx="14.5" cy="14.5" r="14.5" fill="#595D6B" fill-opacity="0.6"/>
<path d="M17.3762 7.73825C17.5754 7.9375 17.6873 8.2077 17.6873 8.48944C17.6873 8.77117 17.5754 9.04138 17.3762 9.24062L12.1168 14.5L17.3762 19.7594C17.5697 19.9598 17.6768 20.2282 17.6744 20.5067C17.672 20.7853 17.5602 21.0518 17.3632 21.2488C17.1662 21.4458 16.8998 21.5575 16.6212 21.56C16.3426 21.5624 16.0742 21.4553 15.8738 21.2617L9.86325 15.2512C9.66406 15.0519 9.55216 14.7817 9.55216 14.5C9.55216 14.2183 9.66406 13.9481 9.86325 13.7488L15.8738 7.73825C16.0731 7.53906 16.3433 7.42716 16.625 7.42716C16.9067 7.42716 17.1769 7.53906 17.3762 7.73825Z" fill="white"/>
</svg>
