<svg width="29" height="29" viewBox="0 0 29 29" fill="none" xmlns="http://www.w3.org/2000/svg">
<circle cx="14.5" cy="14.5" r="14.5" fill="#595D6B" fill-opacity="0.6"/>
<path d="M11.6238 7.73825C11.4246 7.9375 11.3127 8.2077 11.3127 8.48944C11.3127 8.77117 11.4246 9.04138 11.6238 9.24062L16.8832 14.5L11.6238 19.7594C11.4302 19.9598 11.3232 20.2282 11.3256 20.5067C11.328 20.7853 11.4397 21.0518 11.6367 21.2488C11.8337 21.4458 12.1002 21.5575 12.3788 21.56C12.6574 21.5624 12.9258 21.4553 13.1262 21.2617L19.1367 15.2512C19.3359 15.0519 19.4478 14.7817 19.4478 14.5C19.4478 14.2183 19.3359 13.9481 19.1367 13.7488L13.1262 7.73825C12.9269 7.53906 12.6567 7.42716 12.375 7.42716C12.0932 7.42716 11.823 7.53906 11.6238 7.73825Z" fill="white"/>
</svg>
