<svg width="36" height="35" viewBox="0 0 36 35" fill="none" xmlns="http://www.w3.org/2000/svg">
<path d="M31.4205 12.1116C31.4054 11.0071 31.1927 9.91354 30.792 8.87991C30.4445 8.00805 29.9138 7.21624 29.2338 6.55508C28.5537 5.89392 27.7393 5.37794 26.8425 5.04012C25.793 4.6571 24.6843 4.44999 23.5635 4.42762C22.1205 4.36491 21.663 4.34741 18 4.34741C14.337 4.34741 13.8675 4.34741 12.435 4.42762C11.3147 4.45016 10.2065 4.65726 9.15751 5.04012C8.2606 5.37771 7.44604 5.8936 6.76596 6.55479C6.08588 7.21598 5.55524 8.00791 5.20801 8.87991C4.81326 9.89948 4.60069 10.9772 4.57951 12.0664C4.51501 13.4707 4.49551 13.9155 4.49551 17.4768C4.49551 21.038 4.49551 21.493 4.57951 22.8872C4.60201 23.978 4.81351 25.0543 5.20801 26.0766C5.55583 26.9483 6.08685 27.7399 6.76716 28.4008C7.44747 29.0617 8.26211 29.5774 9.15901 29.9149C10.2052 30.3133 11.3136 30.5353 12.4365 30.5712C13.881 30.6339 14.3385 30.6528 18.0015 30.6528C21.6645 30.6528 22.134 30.6528 23.5665 30.5712C24.6872 30.5497 25.7961 30.3431 26.8455 29.9601C27.7421 29.6219 28.5563 29.1058 29.2363 28.4447C29.9163 27.7836 30.4471 26.992 30.795 26.1203C31.1895 25.0995 31.401 24.0232 31.4235 22.931C31.488 21.528 31.5075 21.0832 31.5075 17.5205C31.5045 13.9593 31.5045 13.5072 31.4205 12.1116V12.1116ZM17.991 24.2114C14.16 24.2114 11.0565 21.1941 11.0565 17.4695C11.0565 13.7449 14.16 10.7276 17.991 10.7276C19.8302 10.7276 21.594 11.4379 22.8944 12.7023C24.1949 13.9666 24.9255 15.6814 24.9255 17.4695C24.9255 19.2576 24.1949 20.9724 22.8944 22.2367C21.594 23.5011 19.8302 24.2114 17.991 24.2114V24.2114ZM25.2015 12.0503C24.9891 12.0505 24.7788 12.01 24.5825 11.9311C24.3862 11.8521 24.2079 11.7363 24.0577 11.5903C23.9075 11.4443 23.7884 11.2709 23.7072 11.0801C23.626 10.8893 23.5843 10.6847 23.5845 10.4782C23.5845 10.2719 23.6263 10.0676 23.7075 9.87692C23.7888 9.68627 23.9078 9.51304 24.0579 9.36713C24.208 9.22122 24.3862 9.10547 24.5823 9.0265C24.7783 8.94754 24.9885 8.90689 25.2008 8.90689C25.413 8.90689 25.6232 8.94754 25.8193 9.0265C26.0154 9.10547 26.1935 9.22122 26.3436 9.36713C26.4937 9.51304 26.6128 9.68627 26.694 9.87692C26.7752 10.0676 26.817 10.2719 26.817 10.4782C26.817 11.3474 26.094 12.0503 25.2015 12.0503Z" fill="white"/>
<path d="M17.991 21.8488C20.4788 21.8488 22.4955 19.8881 22.4955 17.4695C22.4955 15.0508 20.4788 13.0901 17.991 13.0901C15.5032 13.0901 13.4865 15.0508 13.4865 17.4695C13.4865 19.8881 15.5032 21.8488 17.991 21.8488Z" fill="white"/>
</svg>
