<svg width="28" height="26" viewBox="0 0 28 26" fill="none" xmlns="http://www.w3.org/2000/svg">
<path d="M10.25 8.24992H15.4381V10.9087H15.5131C16.235 9.61305 18.0013 8.24992 20.6356 8.24992C26.1125 8.24992 27.125 11.6587 27.125 16.093V25.1249H21.7156V17.1187C21.7156 15.2099 21.6763 12.7518 18.9031 12.7518C16.0869 12.7518 15.6556 14.8312 15.6556 16.9799V25.1249H10.25V8.24992ZM0.875014 8.24992H6.50001V25.1249H0.875014V8.24992ZM6.50001 3.56242C6.49977 4.30859 6.20311 5.0241 5.67531 5.55155C5.14752 6.07899 4.43181 6.37517 3.68564 6.37492C2.93947 6.37467 2.22396 6.07802 1.69651 5.55022C1.16907 5.02242 0.87289 4.30672 0.873139 3.56055C0.873387 2.81438 1.17004 2.09887 1.69784 1.57142C1.95918 1.31026 2.2694 1.10312 2.61079 0.961848C2.95218 0.820574 3.31805 0.747924 3.68751 0.748047C4.05698 0.74817 4.4228 0.821064 4.7641 0.962566C5.10539 1.10407 5.41548 1.31141 5.67664 1.57275C5.9378 1.83409 6.14494 2.14431 6.28621 2.48569C6.42749 2.82708 6.50014 3.19296 6.50001 3.56242V3.56242Z" fill="white"/>
</svg>
