<svg width="122" height="88" viewBox="0 0 122 88" fill="none" xmlns="http://www.w3.org/2000/svg">
  
<path d="M21.2377 58.7852C27.3118 58.7852 30.3488 55.3432 30.3488 48.4592H31.5637V60H3.01539V58.7852H6.05244V27.1999H3.01539V25.9851H30.9562V36.311H29.7414C29.7414 32.7071 29.0125 30.2977 27.5548 29.0828C26.1375 27.8275 23.8293 27.1999 20.6303 27.1999H15.1636V41.7777H17.5932C20.5088 41.7777 22.3513 41.4133 23.1207 40.6844C23.89 39.9555 24.2747 38.4977 24.2747 36.311H25.4896V48.4592H24.2747C24.2747 46.1916 23.89 44.7135 23.1207 44.0251C22.3513 43.3367 20.5088 42.9925 17.5932 42.9925H15.1636V58.7852H21.2377ZM54.3368 58.7852C60.4109 58.7852 63.4479 55.3432 63.4479 48.4592H64.6627V60H36.1145V58.7852H39.1515V27.1999H36.1145V25.9851H64.0553V36.311H62.8405C62.8405 32.7071 62.1116 30.2977 60.6538 29.0828C59.2365 27.8275 56.9284 27.1999 53.7294 27.1999H48.2627V41.7777H50.6923C53.6079 41.7777 55.4504 41.4133 56.2197 40.6844C56.9891 39.9555 57.3738 38.4977 57.3738 36.311H58.5886V48.4592H57.3738C57.3738 46.1916 56.9891 44.7135 56.2197 44.0251C55.4504 43.3367 53.6079 42.9925 50.6923 42.9925H48.2627V58.7852H54.3368ZM98.9159 36.311C98.9159 32.7071 98.3085 30.2977 97.0937 29.0828C95.9194 27.8275 93.6922 27.1999 90.4122 27.1999H88.5899V58.7852H92.8418V60H75.2269V58.7852H79.4788V27.1999H77.6566C74.417 27.1999 72.1899 27.8275 70.9751 29.0828C69.8007 30.2977 69.2136 32.7071 69.2136 36.311H67.9987V25.9851H100.131V36.311H98.9159ZM118.981 60H103.796V58.7852H106.833V27.1999H103.796V25.9851H118.981V27.1999H115.944V58.7852H118.981V60Z" fill="white"/>
<path d="M16.6611 71.544C16.5182 71.4583 16.3253 71.3797 16.0824 71.3083C15.8538 71.2225 15.5752 71.1582 15.2465 71.1154C14.9322 71.0582 14.5679 71.0296 14.1535 71.0296C12.7675 71.0296 11.7102 71.494 10.9815 72.4227C10.2528 73.3372 9.88848 74.5945 9.88848 76.1948C9.88848 77.8237 10.26 79.0953 11.003 80.0098C11.7602 80.9242 12.8104 81.3814 14.1535 81.3814C14.5107 81.3814 14.8465 81.36 15.1608 81.3171C15.4752 81.26 15.7609 81.1957 16.0181 81.1242C16.2753 81.0528 16.4896 80.9885 16.6611 80.9313L17.0683 79.2168L18.5257 79.5597L17.9899 82.0458C17.9899 82.0458 17.8327 82.1173 17.5184 82.2601C17.204 82.3887 16.7539 82.5173 16.1681 82.6459C15.5966 82.7745 14.9251 82.8388 14.1535 82.8388C12.9247 82.8388 11.8531 82.5673 10.9387 82.0244C10.0385 81.4814 9.33839 80.717 8.8383 79.7311C8.33821 78.731 8.08103 77.5522 8.06674 76.1948C8.06674 74.8517 8.30964 73.6872 8.79543 72.7014C9.29552 71.7012 10.0028 70.9296 10.9172 70.3867C11.8317 69.8294 12.9033 69.558 14.1321 69.5722C15.0751 69.5722 15.8324 69.658 16.4039 69.8294C16.9897 69.9866 17.4112 70.1509 17.6684 70.3224C17.9399 70.4795 18.0756 70.5653 18.0756 70.5796L18.5471 73.0657L17.0897 73.3872L16.6611 71.544ZM24.5838 73.0014C25.5411 73.0014 26.3698 73.2014 27.07 73.6015C27.7844 73.9873 28.3416 74.5517 28.7417 75.2947C29.1417 76.0234 29.3418 76.9021 29.3418 77.9308C29.3418 79.4597 28.906 80.6599 28.0344 81.5314C27.1628 82.403 26.0126 82.8388 24.5838 82.8388C23.6694 82.8388 22.8549 82.6459 22.1405 82.2601C21.4404 81.8601 20.8903 81.2957 20.4902 80.567C20.1045 79.824 19.9116 78.9453 19.9116 77.9308C19.9116 76.9021 20.1045 76.0234 20.4902 75.2947C20.8903 74.5517 21.4404 73.9873 22.1405 73.6015C22.8549 73.2014 23.6694 73.0014 24.5838 73.0014ZM24.6052 74.3731C23.6194 74.3731 22.8764 74.6874 22.3763 75.3161C21.8762 75.9305 21.6262 76.8021 21.6262 77.9308C21.6262 79.0596 21.8762 79.9312 22.3763 80.5456C22.8764 81.16 23.6194 81.4672 24.6052 81.4672C25.6197 81.4672 26.377 81.16 26.8771 80.5456C27.3772 79.9312 27.6272 79.0596 27.6272 77.9308C27.6272 76.8021 27.3772 75.9305 26.8771 75.3161C26.377 74.6874 25.6197 74.3731 24.6052 74.3731ZM30.691 82.5173V81.1885H32.4913V75.0375L30.4338 74.3302L30.8839 73.0014L33.713 73.9873C34.113 73.6872 34.5702 73.4515 35.0846 73.28C35.6133 73.0943 36.1205 73.0014 36.6063 73.0014C37.3207 73.0014 37.9351 73.0943 38.4495 73.28C38.9781 73.4658 39.3925 73.7444 39.6926 74.1159C40.0498 73.7873 40.5141 73.5229 41.0857 73.3229C41.6572 73.1086 42.2073 73.0014 42.7359 73.0014C44.0362 73.0014 44.972 73.2872 45.5436 73.8587C46.1294 74.4302 46.4223 75.3518 46.4223 76.6235V81.1885H48.2226V82.5173H43.7861V81.1885H44.7506V76.9664C44.7506 76.0234 44.5863 75.359 44.2576 74.9732C43.9433 74.5731 43.4003 74.3731 42.6288 74.3731C42.1716 74.3731 41.7215 74.4445 41.2785 74.5874C40.8499 74.716 40.5213 74.8874 40.2927 75.1018V81.1885H41.2571V82.5173H37.6565V81.1885H38.6209V76.9664C38.6209 76.0234 38.4566 75.359 38.128 74.9732C37.8137 74.5731 37.2707 74.3731 36.4991 74.3731C36.0419 74.3731 35.5918 74.4445 35.1489 74.5874C34.7203 74.716 34.3916 74.8874 34.163 75.1018V81.1885H35.1275V82.5173H30.691ZM49.6117 82.5173V81.1885H51.412V75.0375L49.3545 74.3302L49.8046 73.0014L52.6336 73.9873C53.0337 73.6872 53.4909 73.4515 54.0053 73.28C54.5339 73.0943 55.0412 73.0014 55.527 73.0014C56.2414 73.0014 56.8558 73.0943 57.3702 73.28C57.8988 73.4658 58.3132 73.7444 58.6132 74.1159C58.9704 73.7873 59.4348 73.5229 60.0063 73.3229C60.5778 73.1086 61.1279 73.0014 61.6566 73.0014C62.9568 73.0014 63.8927 73.2872 64.4642 73.8587C65.05 74.4302 65.343 75.3518 65.343 76.6235V81.1885H67.1433V82.5173H62.7068V81.1885H63.6712V76.9664C63.6712 76.0234 63.5069 75.359 63.1783 74.9732C62.864 74.5731 62.321 74.3731 61.5494 74.3731C61.0922 74.3731 60.6421 74.4445 60.1992 74.5874C59.7706 74.716 59.4419 74.8874 59.2133 75.1018V81.1885H60.1778V82.5173H56.5772V81.1885H57.5416V76.9664C57.5416 76.0234 57.3773 75.359 57.0487 74.9732C56.7343 74.5731 56.1914 74.3731 55.4198 74.3731C54.9626 74.3731 54.5125 74.4445 54.0696 74.5874C53.6409 74.716 53.3123 74.8874 53.0837 75.1018V81.1885H54.0482V82.5173H49.6117ZM76.4938 81.8958C76.0365 82.1816 75.5222 82.4102 74.9506 82.5816C74.3791 82.7531 73.8433 82.8388 73.3432 82.8388C72.0287 82.8388 71.0571 82.5459 70.4284 81.9601C69.814 81.3743 69.5068 80.4598 69.5068 79.2168V74.6517H67.7065V73.3229H71.1786V78.8738C71.1786 79.7883 71.3572 80.4527 71.7144 80.867C72.0859 81.2671 72.6645 81.4672 73.4504 81.4672C73.9076 81.4672 74.3934 81.4029 74.9078 81.2743C75.4221 81.1314 75.8365 80.9528 76.1508 80.7385V74.6517H74.3505V73.3229H77.8226V80.8456L79.8372 81.5314L79.4085 82.9031L76.4938 81.8958ZM81.174 82.5173V81.1885H82.9743V75.0375L80.9168 74.3302L81.3669 73.0014L84.2174 73.9873C84.7175 73.6587 85.2462 73.4158 85.8034 73.2586C86.3749 73.0871 86.9322 73.0014 87.4751 73.0014C88.1609 73.0014 88.7896 73.1371 89.3612 73.4086C89.947 73.6658 90.4113 74.0659 90.7542 74.6088C91.1115 75.1375 91.2901 75.809 91.2901 76.6235V81.1885H93.0904V82.5173H88.6539V81.1885H89.6183V76.9664C89.6183 76.0519 89.3826 75.3947 88.9111 74.9946C88.4539 74.5803 87.8823 74.3731 87.1965 74.3731C86.7964 74.3731 86.3749 74.4374 85.932 74.566C85.5033 74.6803 85.0747 74.8589 84.6461 75.1018V81.1885H85.6105V82.5173H81.174ZM94.3569 73.3229H97.8289V81.1885H99.6078V82.5173H94.3569V81.1885H96.1358V74.6517H94.3569V73.3229ZM96.7573 68.7578C97.1574 68.7578 97.4788 68.8793 97.7217 69.1222C97.9646 69.3651 98.0861 69.6866 98.0861 70.0866C98.0861 70.4867 97.9646 70.8082 97.7217 71.0511C97.4788 71.294 97.1574 71.4154 96.7573 71.4154C96.3572 71.4154 96.0357 71.294 95.7928 71.0511C95.5642 70.8082 95.4499 70.4867 95.4499 70.0866C95.4499 69.6866 95.5642 69.3651 95.7928 69.1222C96.0357 68.8793 96.3572 68.7578 96.7573 68.7578ZM105.388 82.8388C104.874 82.8388 104.381 82.7388 103.909 82.5388C103.452 82.3387 103.081 81.9815 102.795 81.4672C102.509 80.9528 102.366 80.2384 102.366 79.3239V74.6517H100.587V73.3229H102.366V71.244L103.995 70.8582V73.3229H106.674V74.6517H103.995V78.3809C103.995 79.3382 104.088 80.1098 104.274 80.6956C104.46 81.2814 104.867 81.5743 105.495 81.5743C105.938 81.5743 106.438 81.4457 106.996 81.1885L107.317 82.3887C107.017 82.503 106.703 82.6031 106.374 82.6888C106.046 82.7888 105.717 82.8388 105.388 82.8388ZM111.138 87.3182C110.924 87.3182 110.695 87.2967 110.452 87.2539C110.224 87.2253 109.981 87.1681 109.724 87.0824L109.981 85.7965C110.167 85.8536 110.345 85.8965 110.517 85.9251C110.688 85.9536 110.852 85.9679 111.01 85.9679C111.41 85.9679 111.738 85.9036 111.995 85.775C112.253 85.6607 112.481 85.425 112.681 85.0678C112.896 84.7249 113.117 84.2105 113.346 83.5247L116.389 74.6517H115.21V73.3229H119.497V74.6517H117.954L114.46 84.4462C114.146 85.3607 113.71 86.0679 113.153 86.568C112.61 87.0681 111.938 87.3182 111.138 87.3182ZM113.817 84.0176L109.424 74.6517H107.902V73.3229H112.36V74.6517H111.138L114.482 82.2601L113.817 84.0176Z" fill="white"/>
</svg>
