<svg width="41" height="40" viewBox="0 0 41 40" fill="none" xmlns="http://www.w3.org/2000/svg">
<path d="M20.5 2.5C10.5943 2.5 2.5625 10.3359 2.5625 20C2.5625 29.6641 10.5943 37.5 20.5 37.5C30.4057 37.5 38.4375 29.6641 38.4375 20C38.4375 10.3359 30.4057 2.5 20.5 2.5ZM29.1204 15.6914C29.1324 15.875 29.1324 16.0664 29.1324 16.2539C29.1324 21.9883 24.6561 28.5938 16.4761 28.5938C13.9536 28.5938 11.6153 27.8789 9.64541 26.6484C10.0058 26.6875 10.3501 26.7031 10.7185 26.7031C12.8005 26.7031 14.7144 26.0156 16.2398 24.8516C14.2859 24.8125 12.6443 23.5625 12.0838 21.8438C12.7685 21.9414 13.3851 21.9414 14.0897 21.7656C13.0837 21.5662 12.1794 21.0331 11.5305 20.257C10.8816 19.4808 10.5282 18.5094 10.5303 17.5078V17.4531C11.1188 17.7773 11.8115 17.9766 12.5362 18.0039C11.927 17.6078 11.4274 17.0711 11.0817 16.4415C10.7359 15.8119 10.5548 15.1088 10.5543 14.3945C10.5543 13.5859 10.7705 12.8477 11.1589 12.207C12.2756 13.5482 13.6691 14.6451 15.2487 15.4264C16.8284 16.2078 18.5589 16.6561 20.3278 16.7422C19.6992 13.793 21.9574 11.4062 24.6721 11.4062C25.9533 11.4062 27.1064 11.9297 27.9192 12.7734C28.9242 12.5898 29.8852 12.2227 30.742 11.7305C30.4097 12.7344 29.713 13.582 28.7881 14.1172C29.685 14.0234 30.5498 13.7813 31.3506 13.4414C30.746 14.3086 29.9893 15.0781 29.1204 15.6914V15.6914Z" fill="white"/>
</svg>
