<svg width="33" height="32" viewBox="0 0 33 32" fill="none" xmlns="http://www.w3.org/2000/svg">
<g clip-path="url(#clip0_22_79)">
<path fill-rule="evenodd" clip-rule="evenodd" d="M23.9456 19.1761C23.5359 18.9774 21.527 18.0201 21.153 17.8867C20.779 17.7547 20.5068 17.6894 20.2331 18.0867C19.9609 18.4814 19.1785 19.3747 18.9406 19.6387C18.7014 19.9041 18.4635 19.9361 18.0551 19.7387C17.6468 19.5387 16.3295 19.1214 14.7689 17.7721C13.5548 16.7214 12.7339 15.4241 12.496 15.0267C12.2581 14.6307 12.4699 14.4161 12.6748 14.2187C12.859 14.0414 13.0831 13.7561 13.288 13.5254C13.4929 13.2934 13.5603 13.1281 13.6964 12.8627C13.8339 12.5987 13.7651 12.3681 13.662 12.1694C13.5603 11.9707 12.7435 10.0201 12.4025 9.22672C12.0711 8.45472 11.7343 8.56005 11.484 8.54672C11.2448 8.53605 10.9725 8.53339 10.7003 8.53339C10.428 8.53339 9.98525 8.63205 9.61125 9.02939C9.23588 9.42539 8.18125 10.3841 8.18125 12.3347C8.18125 14.2841 9.64425 16.1681 9.84913 16.4334C10.054 16.6974 12.7298 20.7001 16.8286 22.4161C17.8049 22.8241 18.5653 23.0681 19.1579 23.2494C20.1369 23.5521 21.0279 23.5094 21.7319 23.4067C22.5156 23.2934 24.1491 22.4481 24.4901 21.5227C24.8298 20.5974 24.8298 19.8041 24.728 19.6387C24.6263 19.4734 24.354 19.3747 23.9443 19.1761H23.9456ZM16.4904 29.0467H16.4849C14.0503 29.0472 11.6605 28.4125 9.56588 27.2094L9.07088 26.9241L3.92563 28.2334L5.29925 23.3694L4.97613 22.8707C3.61506 20.7699 2.89478 18.3384 2.8985 15.8574C2.90125 8.59072 8.998 2.67872 16.4959 2.67872C20.1259 2.67872 23.5386 4.05205 26.1044 6.54272C27.3699 7.76483 28.3729 9.21814 29.0555 10.8186C29.7381 12.419 30.0866 14.1348 30.0809 15.8667C30.0781 23.1334 23.9814 29.0467 16.4904 29.0467V29.0467ZM28.0569 4.65072C26.5419 3.17195 24.7393 1.99944 22.7536 1.20112C20.7679 0.402806 18.6386 -0.005435 16.489 5.46367e-05C7.47725 5.46367e-05 0.14025 7.11339 0.1375 15.8561C0.133324 18.6384 0.886015 21.3726 2.31963 23.7827L0 32.0001L8.668 29.7947C11.0658 31.0615 13.7529 31.7253 16.4835 31.7254H16.4904C25.5021 31.7254 32.8391 24.6121 32.8419 15.8681C32.8485 13.7844 32.429 11.7202 31.6077 9.79477C30.7864 7.86934 29.5795 6.12095 28.0569 4.65072" fill="white"/>
</g>
<defs>
<clipPath id="clip0_22_79">
<rect width="33" height="32" fill="white"/>
</clipPath>
</defs>
</svg>
