<svg width="243" height="30" viewBox="0 0 243 30" fill="none" xmlns="http://www.w3.org/2000/svg">
<path d="M71.6 8.1L67.48 22H64.9L61.98 11.48L58.88 22L56.32 22.02L52.38 8.1H54.8L57.68 19.42L60.8 8.1H63.36L66.26 19.36L69.16 8.1H71.6ZM72.7205 16.44C72.7205 15.3333 72.9471 14.3533 73.4005 13.5C73.8671 12.6467 74.4938 11.9867 75.2805 11.52C76.0805 11.04 76.9605 10.8 77.9205 10.8C78.7871 10.8 79.5405 10.9733 80.1805 11.32C80.8338 11.6533 81.3538 12.0733 81.7405 12.58V10.98H84.0405V22H81.7405V20.36C81.3538 20.88 80.8271 21.3133 80.1605 21.66C79.4938 22.0067 78.7338 22.18 77.8805 22.18C76.9338 22.18 76.0671 21.94 75.2805 21.46C74.4938 20.9667 73.8671 20.2867 73.4005 19.42C72.9471 18.54 72.7205 17.5467 72.7205 16.44ZM81.7405 16.48C81.7405 15.72 81.5805 15.06 81.2605 14.5C80.9538 13.94 80.5471 13.5133 80.0405 13.22C79.5338 12.9267 78.9871 12.78 78.4005 12.78C77.8138 12.78 77.2671 12.9267 76.7605 13.22C76.2538 13.5 75.8405 13.92 75.5205 14.48C75.2138 15.0267 75.0605 15.68 75.0605 16.44C75.0605 17.2 75.2138 17.8667 75.5205 18.44C75.8405 19.0133 76.2538 19.4533 76.7605 19.76C77.2805 20.0533 77.8271 20.2 78.4005 20.2C78.9871 20.2 79.5338 20.0533 80.0405 19.76C80.5471 19.4667 80.9538 19.04 81.2605 18.48C81.5805 17.9067 81.7405 17.24 81.7405 16.48ZM89.6952 12.84V18.94C89.6952 19.3533 89.7885 19.6533 89.9752 19.84C90.1752 20.0133 90.5085 20.1 90.9752 20.1H92.3752V22H90.5752C89.5485 22 88.7618 21.76 88.2152 21.28C87.6685 20.8 87.3952 20.02 87.3952 18.94V12.84H86.0952V10.98H87.3952V8.24H89.6952V10.98H92.3752V12.84H89.6952ZM93.7166 16.48C93.7166 15.3467 93.9432 14.3533 94.3966 13.5C94.8632 12.6333 95.5032 11.9667 96.3166 11.5C97.1299 11.0333 98.0632 10.8 99.1166 10.8C100.45 10.8 101.55 11.12 102.417 11.76C103.297 12.3867 103.89 13.2867 104.197 14.46H101.737C101.537 13.9133 101.217 13.4867 100.777 13.18C100.337 12.8733 99.7832 12.72 99.1166 12.72C98.1832 12.72 97.4366 13.0533 96.8766 13.72C96.3299 14.3733 96.0566 15.2933 96.0566 16.48C96.0566 17.6667 96.3299 18.5933 96.8766 19.26C97.4366 19.9267 98.1832 20.26 99.1166 20.26C100.437 20.26 101.31 19.68 101.737 18.52H104.197C103.877 19.64 103.277 20.5333 102.397 21.2C101.517 21.8533 100.423 22.18 99.1166 22.18C98.0632 22.18 97.1299 21.9467 96.3166 21.48C95.5032 21 94.8632 20.3333 94.3966 19.48C93.9432 18.6133 93.7166 17.6133 93.7166 16.48ZM112.169 10.8C113.009 10.8 113.755 10.98 114.409 11.34C115.075 11.7 115.595 12.2333 115.969 12.94C116.355 13.6467 116.549 14.5 116.549 15.5V22H114.289V15.84C114.289 14.8533 114.042 14.1 113.549 13.58C113.055 13.0467 112.382 12.78 111.529 12.78C110.675 12.78 109.995 13.0467 109.489 13.58C108.995 14.1 108.749 14.8533 108.749 15.84V22H106.469V7.2H108.749V12.26C109.135 11.7933 109.622 11.4333 110.209 11.18C110.809 10.9267 111.462 10.8 112.169 10.8ZM129.432 22.18C128.392 22.18 127.452 21.9467 126.612 21.48C125.772 21 125.112 20.3333 124.632 19.48C124.152 18.6133 123.912 17.6133 123.912 16.48C123.912 15.36 124.159 14.3667 124.652 13.5C125.146 12.6333 125.819 11.9667 126.672 11.5C127.526 11.0333 128.479 10.8 129.532 10.8C130.586 10.8 131.539 11.0333 132.392 11.5C133.246 11.9667 133.919 12.6333 134.412 13.5C134.906 14.3667 135.152 15.36 135.152 16.48C135.152 17.6 134.899 18.5933 134.392 19.46C133.886 20.3267 133.192 21 132.312 21.48C131.446 21.9467 130.486 22.18 129.432 22.18ZM129.432 20.2C130.019 20.2 130.566 20.06 131.072 19.78C131.592 19.5 132.012 19.08 132.332 18.52C132.652 17.96 132.812 17.28 132.812 16.48C132.812 15.68 132.659 15.0067 132.352 14.46C132.046 13.9 131.639 13.48 131.132 13.2C130.626 12.92 130.079 12.78 129.492 12.78C128.906 12.78 128.359 12.92 127.852 13.2C127.359 13.48 126.966 13.9 126.672 14.46C126.379 15.0067 126.232 15.68 126.232 16.48C126.232 17.6667 126.532 18.5867 127.132 19.24C127.746 19.88 128.512 20.2 129.432 20.2ZM142.966 10.8C143.833 10.8 144.606 10.98 145.286 11.34C145.98 11.7 146.52 12.2333 146.906 12.94C147.293 13.6467 147.486 14.5 147.486 15.5V22H145.226V15.84C145.226 14.8533 144.98 14.1 144.486 13.58C143.993 13.0467 143.32 12.78 142.466 12.78C141.613 12.78 140.933 13.0467 140.426 13.58C139.933 14.1 139.686 14.8533 139.686 15.84V22H137.406V10.98H139.686V12.24C140.06 11.7867 140.533 11.4333 141.106 11.18C141.693 10.9267 142.313 10.8 142.966 10.8ZM165.89 8.1L161.29 16.96V22H159.01V16.96L154.39 8.1H156.93L160.15 14.92L163.37 8.1H165.89ZM172.479 22.18C171.439 22.18 170.499 21.9467 169.659 21.48C168.819 21 168.159 20.3333 167.679 19.48C167.199 18.6133 166.959 17.6133 166.959 16.48C166.959 15.36 167.206 14.3667 167.699 13.5C168.193 12.6333 168.866 11.9667 169.719 11.5C170.573 11.0333 171.526 10.8 172.579 10.8C173.633 10.8 174.586 11.0333 175.439 11.5C176.293 11.9667 176.966 12.6333 177.459 13.5C177.953 14.3667 178.199 15.36 178.199 16.48C178.199 17.6 177.946 18.5933 177.439 19.46C176.933 20.3267 176.239 21 175.359 21.48C174.493 21.9467 173.533 22.18 172.479 22.18ZM172.479 20.2C173.066 20.2 173.613 20.06 174.119 19.78C174.639 19.5 175.059 19.08 175.379 18.52C175.699 17.96 175.859 17.28 175.859 16.48C175.859 15.68 175.706 15.0067 175.399 14.46C175.093 13.9 174.686 13.48 174.179 13.2C173.673 12.92 173.126 12.78 172.539 12.78C171.953 12.78 171.406 12.92 170.899 13.2C170.406 13.48 170.013 13.9 169.719 14.46C169.426 15.0067 169.279 15.68 169.279 16.48C169.279 17.6667 169.579 18.5867 170.179 19.24C170.793 19.88 171.559 20.2 172.479 20.2ZM190.433 10.98V22H188.153V20.7C187.793 21.1533 187.32 21.5133 186.733 21.78C186.16 22.0333 185.546 22.16 184.893 22.16C184.026 22.16 183.246 21.98 182.553 21.62C181.873 21.26 181.333 20.7267 180.933 20.02C180.546 19.3133 180.353 18.46 180.353 17.46V10.98H182.613V17.12C182.613 18.1067 182.86 18.8667 183.353 19.4C183.846 19.92 184.52 20.18 185.373 20.18C186.226 20.18 186.9 19.92 187.393 19.4C187.9 18.8667 188.153 18.1067 188.153 17.12V10.98H190.433ZM202.421 8.1V9.96H198.721V22H196.441V9.96H192.721V8.1H202.421ZM214.71 10.98V22H212.43V20.7C212.07 21.1533 211.597 21.5133 211.01 21.78C210.437 22.0333 209.824 22.16 209.17 22.16C208.304 22.16 207.524 21.98 206.83 21.62C206.15 21.26 205.61 20.7267 205.21 20.02C204.824 19.3133 204.63 18.46 204.63 17.46V10.98H206.89V17.12C206.89 18.1067 207.137 18.8667 207.63 19.4C208.124 19.92 208.797 20.18 209.65 20.18C210.504 20.18 211.177 19.92 211.67 19.4C212.177 18.8667 212.43 18.1067 212.43 17.12V10.98H214.71ZM219.999 12.62C220.385 12.0867 220.912 11.6533 221.579 11.32C222.259 10.9733 223.012 10.8 223.839 10.8C224.812 10.8 225.692 11.0333 226.479 11.5C227.265 11.9667 227.885 12.6333 228.339 13.5C228.792 14.3533 229.019 15.3333 229.019 16.44C229.019 17.5467 228.792 18.54 228.339 19.42C227.885 20.2867 227.259 20.9667 226.459 21.46C225.672 21.94 224.799 22.18 223.839 22.18C222.985 22.18 222.225 22.0133 221.559 21.68C220.905 21.3467 220.385 20.92 219.999 20.4V22H217.719V7.2H219.999V12.62ZM226.699 16.44C226.699 15.68 226.539 15.0267 226.219 14.48C225.912 13.92 225.499 13.5 224.979 13.22C224.472 12.9267 223.925 12.78 223.339 12.78C222.765 12.78 222.219 12.9267 221.699 13.22C221.192 13.5133 220.779 13.94 220.459 14.5C220.152 15.06 219.999 15.72 219.999 16.48C219.999 17.24 220.152 17.9067 220.459 18.48C220.779 19.04 221.192 19.4667 221.699 19.76C222.219 20.0533 222.765 20.2 223.339 20.2C223.925 20.2 224.472 20.0533 224.979 19.76C225.499 19.4533 225.912 19.0133 226.219 18.44C226.539 17.8667 226.699 17.2 226.699 16.44ZM241.373 16.22C241.373 16.6333 241.347 17.0067 241.293 17.34H232.873C232.94 18.22 233.267 18.9267 233.853 19.46C234.44 19.9933 235.16 20.26 236.013 20.26C237.24 20.26 238.107 19.7467 238.613 18.72H241.073C240.74 19.7333 240.133 20.5667 239.253 21.22C238.387 21.86 237.307 22.18 236.013 22.18C234.96 22.18 234.013 21.9467 233.173 21.48C232.347 21 231.693 20.3333 231.213 19.48C230.747 18.6133 230.513 17.6133 230.513 16.48C230.513 15.3467 230.74 14.3533 231.193 13.5C231.66 12.6333 232.307 11.9667 233.133 11.5C233.973 11.0333 234.933 10.8 236.013 10.8C237.053 10.8 237.98 11.0267 238.793 11.48C239.607 11.9333 240.24 12.5733 240.693 13.4C241.147 14.2133 241.373 15.1533 241.373 16.22ZM238.993 15.5C238.98 14.66 238.68 13.9867 238.093 13.48C237.507 12.9733 236.78 12.72 235.913 12.72C235.127 12.72 234.453 12.9733 233.893 13.48C233.333 13.9733 233 14.6467 232.893 15.5H238.993Z" fill="#18A0FB"/>
<g clip-path="url(#clip0_526_78)">
<path d="M36.1622 6.05528C35.9501 5.27146 35.5364 4.55687 34.9622 3.98269C34.3881 3.4085 33.6735 2.99473 32.8897 2.7826C30.0202 2 18.4712 2 18.4712 2C18.4712 2 6.92175 2.02369 4.05222 2.80629C3.26839 3.01843 2.55381 3.43222 1.97965 4.00644C1.40548 4.58065 0.991758 5.29526 0.779682 6.07911C-0.0882847 11.1777 -0.424985 18.9468 0.803515 23.8414C1.01561 24.6253 1.42934 25.3398 2.00351 25.914C2.57767 26.4882 3.29224 26.902 4.07605 27.1141C6.94558 27.8967 18.4948 27.8967 18.4948 27.8967C18.4948 27.8967 30.0438 27.8967 32.9132 27.1141C33.6971 26.902 34.4117 26.4883 34.9859 25.9141C35.56 25.3399 35.9738 24.6253 36.1859 23.8414C37.1014 18.7356 37.3835 10.9714 36.1622 6.05542V6.05528Z" fill="#FF0000"/>
<path d="M14.7953 20.4976L24.376 14.9483L14.7953 9.39905V20.4976Z" fill="white"/>
</g>
<defs>
<clipPath id="clip0_526_78">
<rect width="36.98" height="26" fill="white" transform="translate(0 2)"/>
</clipPath>
</defs>
</svg>
