<svg width="509" height="509" viewBox="0 0 509 509" fill="none" xmlns="http://www.w3.org/2000/svg">
<path d="M504.591 247.459C504.591 203.962 495.368 168.564 473.931 130.716C452.495 92.8671 421.62 61.2168 384.314 38.8483C347.009 16.4797 304.545 4.15589 261.061 3.07743C217.577 1.99896 174.555 12.2027 136.186 32.6944C97.8181 53.1861 65.412 83.2669 42.1254 120.006C18.8388 156.746 5.46592 198.89 3.30964 242.334C1.15337 285.779 10.2873 329.04 29.8214 367.905C44.1957 396.504 63.8408 422.004 87.6206 443.119" stroke="#595D6B" stroke-opacity="0.6" stroke-width="6"/>
<path d="M505 254.818C505 302.208 491.54 348.623 466.187 388.662C440.834 428.7 404.631 460.714 361.791 480.977C318.951 501.24 271.237 508.919 224.203 503.12C177.169 497.321 132.749 478.282 96.1146 448.22" stroke="#FF845E" stroke-width="4" stroke-linejoin="round" stroke-dasharray="8 16"/>
</svg>
